<svg width="32" height="33" viewBox="0 0 32 33" fill="none" xmlns="http://www.w3.org/2000/svg">
    <path d="M21.6767 14.513C22.2833 14.513 22.7976 14.3006 23.2196 13.8759C23.6415 13.4515 23.8525 12.9361 23.8525 12.3297C23.8525 11.7233 23.6403 11.2091 23.2158 10.7872C22.7914 10.3649 22.2758 10.1538 21.6692 10.1538C21.0628 10.1538 20.5486 10.3662 20.1267 10.7909C19.7047 11.2154 19.4937 11.7308 19.4937 12.3372C19.4937 12.9436 19.706 13.4577 20.1304 13.8797C20.5548 14.3019 21.0703 14.513 21.6767 14.513ZM10.3308 14.513C10.9372 14.513 11.4514 14.3006 11.8733 13.8759C12.2953 13.4515 12.5062 12.9361 12.5062 12.3297C12.5062 11.7233 12.294 11.2091 11.8696 10.7872C11.4451 10.3649 10.9297 10.1538 10.3233 10.1538C9.71666 10.1538 9.20235 10.3662 8.78041 10.7909C8.35846 11.2154 8.14749 11.7308 8.14749 12.3372C8.14749 12.9436 8.35971 13.4577 8.78416 13.8797C9.2086 14.3019 9.72416 14.513 10.3308 14.513ZM16 19.0001C14.2608 19.0001 12.6711 19.4867 11.2308 20.4601C9.79055 21.4334 8.7286 22.7202 8.04499 24.3205H23.955C23.2714 22.7202 22.2094 21.4334 20.7692 20.4601C19.3289 19.4867 17.7392 19.0001 16 19.0001ZM16.0029 32.3334C13.8129 32.3334 11.7544 31.9179 9.82749 31.0867C7.90054 30.2556 6.22443 29.1277 4.79916 27.703C3.37388 26.2783 2.24541 24.6029 1.41374 22.6767C0.582351 20.7506 0.166656 18.6927 0.166656 16.503C0.166656 14.313 0.582212 12.2545 1.41332 10.3276C2.24443 8.40064 3.37235 6.72452 4.79707 5.29925C6.2218 3.87397 7.89721 2.7455 9.82332 1.91383C11.7494 1.08244 13.8074 0.666748 15.9971 0.666748C18.1871 0.666748 20.2455 1.0823 22.1725 1.91341C24.0994 2.74452 25.7755 3.87244 27.2008 5.29716C28.6261 6.72189 29.7546 8.3973 30.5862 10.3234C31.4176 12.2495 31.8333 14.3074 31.8333 16.4972C31.8333 18.6872 31.4178 20.7456 30.5867 22.6726C29.7555 24.5995 28.6276 26.2756 27.2029 27.7009C25.7782 29.1262 24.1028 30.2547 22.1767 31.0863C20.2505 31.9177 18.1926 32.3334 16.0029 32.3334ZM16 29.8334C19.7222 29.8334 22.875 28.5417 25.4583 25.9584C28.0417 23.3751 29.3333 20.2223 29.3333 16.5001C29.3333 12.7779 28.0417 9.62508 25.4583 7.04175C22.875 4.45841 19.7222 3.16675 16 3.16675C12.2778 3.16675 9.12499 4.45841 6.54166 7.04175C3.95832 9.62508 2.66666 12.7779 2.66666 16.5001C2.66666 20.2223 3.95832 23.3751 6.54166 25.9584C9.12499 28.5417 12.2778 29.8334 16 29.8334Z" fill="#804DB3"/>
</svg>
