<svg width="32" height="32" viewBox="0 0 32 32" fill="none" xmlns="http://www.w3.org/2000/svg">
    <path d="M21.6767 14.013C22.2833 14.013 22.7976 13.8006 23.2196 13.3759C23.6415 12.9515 23.8525 12.4361 23.8525 11.8297C23.8525 11.2233 23.6403 10.7091 23.2158 10.2872C22.7914 9.86494 22.2758 9.65383 21.6692 9.65383C21.0628 9.65383 20.5486 9.86619 20.1267 10.2909C19.7047 10.7154 19.4937 11.2308 19.4937 11.8372C19.4937 12.4436 19.706 12.9577 20.1304 13.3797C20.5548 13.8019 21.0703 14.013 21.6767 14.013ZM10.3308 14.013C10.9372 14.013 11.4514 13.8006 11.8733 13.3759C12.2953 12.9515 12.5062 12.4361 12.5062 11.8297C12.5062 11.2233 12.294 10.7091 11.8696 10.2872C11.4451 9.86494 10.9297 9.65383 10.3233 9.65383C9.71666 9.65383 9.20235 9.86619 8.78041 10.2909C8.35846 10.7154 8.14749 11.2308 8.14749 11.8372C8.14749 12.4436 8.35971 12.9577 8.78416 13.3797C9.2086 13.8019 9.72416 14.013 10.3308 14.013ZM16 24.6538C17.7392 24.6538 19.3289 24.1672 20.7692 23.1938C22.2094 22.2205 23.2714 20.9337 23.955 19.3334H8.04499C8.7286 20.9337 9.79055 22.2205 11.2308 23.1938C12.6711 24.1672 14.2608 24.6538 16 24.6538ZM16.0029 31.8334C13.8129 31.8334 11.7544 31.4179 9.82749 30.5867C7.90054 29.7556 6.22443 28.6277 4.79916 27.203C3.37388 25.7783 2.24541 24.1029 1.41374 22.1767C0.582351 20.2506 0.166656 18.1927 0.166656 16.003C0.166656 13.813 0.582212 11.7545 1.41332 9.82758C2.24443 7.90064 3.37235 6.22452 4.79707 4.79925C6.2218 3.37397 7.89721 2.2455 9.82332 1.41383C11.7494 0.582442 13.8074 0.166748 15.9971 0.166748C18.1871 0.166748 20.2455 0.582303 22.1725 1.41341C24.0994 2.24452 25.7755 3.37244 27.2008 4.79716C28.6261 6.22189 29.7546 7.8973 30.5862 9.82341C31.4176 11.7495 31.8333 13.8074 31.8333 15.9972C31.8333 18.1872 31.4178 20.2456 30.5867 22.1726C29.7555 24.0995 28.6276 25.7756 27.2029 27.2009C25.7782 28.6262 24.1028 29.7547 22.1767 30.5863C20.2505 31.4177 18.1926 31.8334 16.0029 31.8334ZM16 29.3334C19.7222 29.3334 22.875 28.0417 25.4583 25.4584C28.0417 22.8751 29.3333 19.7223 29.3333 16.0001C29.3333 12.2779 28.0417 9.12508 25.4583 6.54175C22.875 3.95841 19.7222 2.66675 16 2.66675C12.2778 2.66675 9.12499 3.95841 6.54166 6.54175C3.95832 9.12508 2.66666 12.2779 2.66666 16.0001C2.66666 19.7223 3.95832 22.8751 6.54166 25.4584C9.12499 28.0417 12.2778 29.3334 16 29.3334Z" fill="#804DB3"/>
</svg>
