<svg width="24" height="24" viewBox="0 0 24 24" fill="none" xmlns="http://www.w3.org/2000/svg">
    <path d="M2.51345 23.6364C1.82012 23.6364 1.22782 23.3908 0.736551 22.8998C0.245517 22.4085 0 21.8162 0 21.1229V2.51345C0 1.82012 0.245517 1.22782 0.736551 0.736551C1.22782 0.245517 1.82012 0 2.51345 0H21.1229C21.8162 0 22.4085 0.245517 22.8998 0.736551C23.3908 1.22782 23.6364 1.82012 23.6364 2.51345V21.1229C23.6364 21.8162 23.3908 22.4085 22.8998 22.8998C22.4085 23.3908 21.8162 23.6364 21.1229 23.6364H2.51345ZM6.25668 21.5508V2.08556H2.51345C2.40639 2.08556 2.30837 2.13017 2.21939 2.21938C2.13017 2.30837 2.08556 2.40639 2.08556 2.51345V21.1229C2.08556 21.23 2.13017 21.328 2.21939 21.417C2.30837 21.5062 2.40639 21.5508 2.51345 21.5508H6.25668ZM8.34225 21.5508H21.1229C21.23 21.5508 21.328 21.5062 21.417 21.417C21.5062 21.328 21.5508 21.23 21.5508 21.1229V2.51345C21.5508 2.40639 21.5062 2.30837 21.417 2.21938C21.328 2.13017 21.23 2.08556 21.1229 2.08556H8.34225V21.5508Z" fill="white"/>
</svg>
