<svg width="24" height="25" viewBox="0 0 24 25" fill="none" xmlns="http://www.w3.org/2000/svg">
    <path d="M2.51384 24.2764C1.81136 24.2764 1.21676 24.033 0.730059 23.5463C0.243353 23.0596 0 22.465 0 21.7625V3.15019C0 2.44771 0.243353 1.85312 0.730059 1.36641C1.21676 0.879705 1.81136 0.636353 2.51384 0.636353H21.1262C21.8286 0.636353 22.4232 0.879705 22.9099 1.36641C23.3966 1.85312 23.64 2.44771 23.64 3.15019V21.7625C23.64 22.465 23.3966 23.0596 22.9099 23.5463C22.4232 24.033 21.8286 24.2764 21.1262 24.2764H2.51384ZM2.51384 22.1905H21.1262C21.2332 22.1905 21.3313 22.1459 21.4203 22.0566C21.5095 21.9676 21.5541 21.8696 21.5541 21.7625V3.15019C21.5541 3.04311 21.5095 2.94508 21.4203 2.85608C21.3313 2.76685 21.2332 2.72223 21.1262 2.72223H2.51384C2.40676 2.72223 2.30872 2.76685 2.21973 2.85608C2.1305 2.94508 2.08588 3.04311 2.08588 3.15019V21.7625C2.08588 21.8696 2.1305 21.9676 2.21973 22.0566C2.30872 22.1459 2.40676 22.1905 2.51384 22.1905ZM11.82 15.6039L14.2883 17.1096C14.5166 17.254 14.747 17.2459 14.9794 17.0853C15.2121 16.9249 15.2982 16.7074 15.2377 16.4327L14.5824 13.6088L16.7861 11.7047C17.0001 11.514 17.0629 11.2894 16.9746 11.031C16.8863 10.7726 16.6977 10.6318 16.4089 10.6086L13.5287 10.3653L12.3922 7.71514C12.2854 7.46368 12.0946 7.33795 11.82 7.33795C11.5454 7.33795 11.3546 7.46368 11.2478 7.71514L10.1113 10.3653L7.23106 10.6086C6.94228 10.6318 6.75374 10.7726 6.66544 11.031C6.57713 11.2894 6.63994 11.514 6.85386 11.7047L9.0576 13.6088L8.40228 16.4327C8.34179 16.7074 8.42789 16.9249 8.66058 17.0853C8.89304 17.2459 9.12342 17.254 9.35171 17.1096L11.82 15.6039Z" fill="white"/>
</svg>
