<svg width="24" height="24" viewBox="0 0 24 24" fill="none" xmlns="http://www.w3.org/2000/svg">
    <path d="M2.51384 23.9164C1.8204 23.9164 1.22801 23.6708 0.736664 23.1797C0.245555 22.6884 0 22.096 0 21.4025V2.7902C0 2.09676 0.245555 1.50437 0.736664 1.01303C1.22801 0.521922 1.8204 0.276367 2.51384 0.276367H21.1262C21.8196 0.276367 22.412 0.521922 22.9033 1.01303C23.3944 1.50437 23.64 2.09676 23.64 2.7902V21.4025C23.64 22.096 23.3944 22.6884 22.9033 23.1797C22.412 23.6708 21.8196 23.9164 21.1262 23.9164H2.51384ZM8.34353 21.8305H21.1262C21.2332 21.8305 21.3313 21.7859 21.4203 21.6966C21.5095 21.6076 21.5541 21.5096 21.5541 21.4025V2.7902C21.5541 2.68313 21.5095 2.58509 21.4203 2.49609C21.3313 2.40686 21.2332 2.36225 21.1262 2.36225H8.34353V21.8305Z" fill="white"/>
</svg>
