<svg width="118" height="118" viewBox="0 0 118 118" fill="none" xmlns="http://www.w3.org/2000/svg">
<path d="M59 57.437C54.2677 57.437 50.3163 55.8518 47.1459 52.6813C43.9755 49.5109 42.3903 45.5546 42.3903 40.8125C42.3903 36.0696 43.9755 32.1182 47.1459 28.9584C50.3163 25.7986 54.2677 24.2188 59 24.2188C63.7323 24.2188 67.6837 25.7986 70.8541 28.9584C74.0245 32.1182 75.6097 36.0696 75.6097 40.8125C75.6097 45.5546 74.0245 49.5109 70.8541 52.6813C67.6837 55.8518 63.7323 57.437 59 57.437ZM22.125 94.9303V85.065C22.125 82.5017 22.8096 80.2245 24.1789 78.2332C25.5474 76.2428 27.342 74.7129 29.5627 73.6435C34.6334 71.3155 39.5935 69.5644 44.443 68.3901C49.2925 67.215 54.1444 66.6275 58.9988 66.6275C63.8532 66.6275 68.6973 67.2232 73.5312 68.4147C78.3643 69.6061 83.3092 71.3565 88.366 73.6657C90.6449 74.7334 92.4661 76.2592 93.8297 78.2431C95.1932 80.2278 95.875 82.5017 95.875 85.065V94.9303H22.125ZM28.3028 88.7525H89.6972V85.065C89.6972 83.88 89.3313 82.7554 88.5996 81.6909C87.867 80.6264 86.9009 79.7824 85.7012 79.1588C81.0664 76.8955 76.5865 75.271 72.2615 74.2852C67.9365 73.2986 63.516 72.8052 59 72.8052C54.484 72.8052 50.0414 73.2986 45.6721 74.2852C41.3037 75.271 36.8291 76.8955 32.2484 79.1588C31.0487 79.7824 30.0912 80.6264 29.3759 81.6909C28.6605 82.7554 28.3028 83.88 28.3028 85.065V88.7525ZM59 51.2604C61.9475 51.2604 64.4231 50.2586 66.4266 48.2551C68.4302 46.2516 69.4319 43.7756 69.4319 40.8273C69.4319 37.8797 68.4302 35.4042 66.4266 33.4006C64.4231 31.3971 61.9475 30.3953 59 30.3953C56.0525 30.3953 53.5769 31.3971 51.5734 33.4006C49.5698 35.4042 48.5681 37.8797 48.5681 40.8273C48.5681 43.7756 49.5698 46.2516 51.5734 48.2551C53.5769 50.2586 56.0525 51.2604 59 51.2604Z" fill="white"/>
</svg>
