<svg xmlns="http://www.w3.org/2000/svg" width="18" height="19" viewBox="0 0 18 19" fill="none">
    <path d="M12.5 13C12.1134 13.3866 11.4866 13.3866 11.1 13L8.29289 10.1929C8.10536 10.0054 8 9.751 8 9.48579V5.5C8 4.94772 8.44772 4.5 9 4.5C9.55228 4.5 10 4.94772 10 5.5V8.68579C10 8.951 10.1054 9.20536 10.2929 9.39289L12.5 11.6C12.8866 11.9866 12.8866 12.6134 12.5 13Z" fill="#BAB8C7"/>
    <path d="M9 18.5C6.7 18.5 4.69583 17.7375 2.9875 16.2125C1.36269 14.7621 0.397491 12.9686 0.0918987 10.8322C0.0666078 10.6554 0.206028 10.5 0.38464 10.5H1.83768C1.9879 10.5 2.11433 10.6114 2.13933 10.7595C2.41231 12.3769 3.17003 13.7237 4.4125 14.8C5.72083 15.9333 7.25 16.5 9 16.5C10.95 16.5 12.6042 15.8208 13.9625 14.4625C15.3208 13.1042 16 11.45 16 9.5C16 7.55 15.3208 5.89583 13.9625 4.5375C12.6042 3.17917 10.95 2.5 9 2.5C7.85 2.5 6.775 2.76667 5.775 3.3C4.94703 3.74159 4.2276 4.32028 3.61671 5.03608C3.45727 5.22291 3.59583 5.5 3.84145 5.5H5.7C5.86569 5.5 6 5.63431 6 5.8V7.2C6 7.36569 5.86569 7.5 5.7 7.5H0.3C0.134315 7.5 0 7.36569 0 7.2V1.8C0 1.63431 0.134315 1.5 0.3 1.5H1.7C1.86569 1.5 2 1.63431 2 1.8V2.99215C2 3.27602 2.36813 3.40937 2.56512 3.20497C3.29774 2.44482 4.14687 1.83483 5.1125 1.375C6.3375 0.791667 7.63333 0.5 9 0.5C10.25 0.5 11.4208 0.7375 12.5125 1.2125C13.6042 1.6875 14.5542 2.32917 15.3625 3.1375C16.1708 3.94583 16.8125 4.89583 17.2875 5.9875C17.7625 7.07917 18 8.25 18 9.5C18 10.75 17.7625 11.9208 17.2875 13.0125C16.8125 14.1042 16.1708 15.0542 15.3625 15.8625C14.5542 16.6708 13.6042 17.3125 12.5125 17.7875C11.4208 18.2625 10.25 18.5 9 18.5Z" fill="#2E2B3B"/>
</svg>